# xmcd CD database file
#
# Track frame offsets:
#	150
#	16323
#	36443
#	57856
#	74319
#	101323
#	117372
#	139265
#	162151
#	182996
#	200082
#
# Disc length: 2978 seconds
#
# Revision: 0
# Processed by: cddbd v1.5.2PL0 Copyright (c) Steve Scherf et al.
# Submitted via: CDex 1.70beta2
#
DISCID=9d0ba00b
DTITLE=Marius Nordal - Boomer Jazz
DYEAR=2005
DGENRE=Jazz
TTITLE0=School Days
TTITLE1=Scarborough Fair
TTITLE2=Eleanor Rigby
TTITLE3=Aubrey
TTITLE4=Good Vibrations
TTITLE5=She's leaving home
TTITLE6=Mrs. Robinson
TTITLE7=Killing me softly
TTITLE8=Strawberry fields forever
TTITLE9=Wives and lovers
TTITLE10=Suncatchers/Oregon
EXTD=YEAR: 2005
EXTT0=
EXTT1=
EXTT2=
EXTT3=
EXTT4=
EXTT5=
EXTT6=
EXTT7=
EXTT8=
EXTT9=
EXTT10=
PLAYORDER=
